<?xml version="1.0" standalone="no"?><svg width="100%" height="100%" id="svg" viewBox="0 0 1440 590" xmlns="http://www.w3.org/2000/svg" class="transition duration-300 ease-in-out delay-150"><path d="M 0,600 C 0,600 0,200 0,200 C 108.68899521531102,202.9377990430622 217.37799043062205,205.8755980861244 307,219 C 396.62200956937795,232.1244019138756 467.17703349282294,255.4354066985646 561,236 C 654.8229665071771,216.5645933014354 771.9138755980862,154.38277511961724 879,160 C 986.0861244019138,165.61722488038276 1083.1674641148325,239.03349282296654 1175,257 C 1266.8325358851675,274.96650717703346 1353.4162679425838,237.48325358851673 1440,200 C 1440,200 1440,600 1440,600 Z" stroke="none" stroke-width="0" fill="#ff6900" fill-opacity="0.53" class="transition-all duration-300 ease-in-out delay-150 path-0"></path><path d="M 0,600 C 0,600 0,400 0,400 C 65.54066985645932,423.99043062200957 131.08133971291863,447.98086124401914 241,458 C 350.91866028708137,468.01913875598086 505.2153110047848,464.06698564593296 617,433 C 728.7846889952152,401.93301435406704 798.0574162679425,343.75119617224885 888,353 C 977.9425837320575,362.24880382775115 1088.555023923445,438.9282296650718 1184,458 C 1279.444976076555,477.0717703349282 1359.7224880382773,438.53588516746413 1440,400 C 1440,400 1440,600 1440,600 Z" stroke="none" stroke-width="0" fill="#ff6900" fill-opacity="1" class="transition-all duration-300 ease-in-out delay-150 path-1"></path></svg>